<svg width="336" height="510" viewBox="0 0 336 510" fill="none" xmlns="http://www.w3.org/2000/svg">
<path d="M10 507V89C10 55 43.9333 3.33334 170.333 3.33334C296.733 3.33334 333 53 333 86.1666V507H10Z" fill="#E0DBDB" stroke="#535353" stroke-width="5"/>
<path d="M27 85C27 68.4314 40.4315 55 57 55H286C302.569 55 316 68.4315 316 85V489H27V85Z" fill="#797979"/>
<path fill-rule="evenodd" clip-rule="evenodd" d="M176.106 12.1064C175.99 12.158 175.388 12.7184 174.767 13.3517C173.246 14.9032 172.729 15.7546 172.297 17.4162C172.156 17.9607 172.12 18.2774 172.111 19.0737C172.105 19.6151 172.126 20.2321 172.157 20.4448L172.214 20.8315L171.243 19.8719C169.759 18.4045 169.713 18.4059 168.149 19.9654C167.555 20.5578 166.91 21.2723 166.715 21.5533C166.234 22.2475 165.769 23.2533 165.547 24.0815C165.383 24.6907 165.362 24.905 165.357 25.9642C165.354 26.6216 165.376 27.2702 165.406 27.4056C165.456 27.633 165.387 27.5787 164.492 26.6925C163.96 26.165 163.455 25.6982 163.371 25.6554C163.158 25.5474 162.746 25.558 162.519 25.6773C162.265 25.8112 160.275 27.8417 159.965 28.2845C158.875 29.8384 158.37 31.7482 158.562 33.5872C158.758 35.4566 159.484 36.9822 160.878 38.4563L161.442 39.0517L157.857 42.6328C155.885 44.6024 154.211 46.3314 154.136 46.4748C154.061 46.6183 154 46.8331 154 46.9522C154 47.3011 154.249 47.7062 154.56 47.8653C154.909 48.0431 155.198 48.0448 155.532 47.871C155.675 47.7962 157.403 46.1213 159.372 44.149L162.953 40.5629L163.548 41.1265C165.021 42.5217 166.547 43.2477 168.415 43.4434C170.143 43.6244 172.02 43.1642 173.483 42.2016C174.028 41.8425 176.154 39.8097 176.324 39.4851C176.442 39.2578 176.453 38.8457 176.345 38.6332C176.302 38.5488 175.836 38.0404 175.308 37.5035C174.781 36.9666 174.412 36.5506 174.49 36.5791C174.772 36.6831 176.498 36.7085 177.115 36.6177C178.261 36.4491 179.462 35.9672 180.465 35.2739C180.735 35.0867 181.441 34.4475 182.033 33.8534C183.592 32.2898 183.593 32.2459 182.127 30.7538C181.226 29.8373 181.182 29.7806 181.413 29.8245C182.402 30.0125 183.824 29.9261 184.927 29.6108C185.683 29.395 186.796 28.8458 187.388 28.3963C187.639 28.2056 188.309 27.5804 188.876 27.0069C190.397 25.4677 190.396 25.4287 188.74 23.8122C187.672 22.7689 187.015 22.254 186.323 21.9182L185.997 21.7595L186.429 21.4399C187.458 20.679 188.454 19.4936 189.038 18.3354C189.697 17.0282 189.915 16.0697 189.968 14.2551C190.006 12.9474 190 12.8677 189.857 12.5862C189.753 12.3837 189.613 12.2431 189.411 12.1403C189.132 11.9976 189.048 11.992 187.743 12.0281C186.887 12.0518 186.184 12.1078 185.877 12.1766C183.677 12.6702 181.792 13.8797 180.539 15.6025L180.237 16.0182L180.143 15.7913C179.897 15.1971 179.178 14.2614 178.193 13.2553C176.965 11.9993 176.69 11.8476 176.106 12.1064ZM187.862 14.7671C187.789 15.9762 187.338 17.2715 186.659 18.219C185.766 19.4662 184.34 20.4568 182.901 20.8288C182.384 20.9625 181.051 21.0929 180.974 21.0172C180.892 20.9357 181.047 19.5544 181.203 18.9861C181.821 16.7335 183.686 14.9064 185.947 14.3378C186.638 14.1642 186.803 14.1406 187.416 14.1273L187.901 14.1167L187.862 14.7671ZM177.142 15.189C177.772 15.8881 178.055 16.2977 178.329 16.9001C178.651 17.6108 178.812 18.3996 178.812 19.2708C178.813 20.9357 178.247 22.2625 177.02 23.4682L176.483 23.9955L175.949 23.433C175.655 23.1236 175.281 22.6648 175.118 22.4135C173.926 20.5722 173.873 18.2453 174.98 16.3535C175.299 15.8084 176.364 14.6089 176.529 14.6089C176.579 14.6089 176.855 14.8699 177.142 15.189ZM170.331 21.9228C171.581 23.2516 172.15 24.7435 172.041 26.408C171.942 27.9331 171.362 29.1512 170.183 30.3114L169.695 30.7915L169.14 30.1829C167.838 28.7546 167.368 27.5285 167.444 25.7579C167.494 24.6033 167.786 23.7181 168.432 22.765C168.658 22.4315 169.663 21.3588 169.75 21.3588C169.778 21.3588 170.04 21.6126 170.331 21.9228ZM183.843 23.2636C184.429 23.3714 185.256 23.7033 185.782 24.0416C186.308 24.3805 187.388 25.3406 187.388 25.4693C187.388 25.5988 186.369 26.5509 185.894 26.8649C184.045 28.0878 181.577 28.1264 179.709 26.9619C179.424 26.7844 178.924 26.3871 178.598 26.0789L178.004 25.5186L178.532 24.9811C179.724 23.7656 181.03 23.1972 182.648 23.1903C183.076 23.1884 183.614 23.2214 183.843 23.2636ZM177.454 27.9441C177.445 27.9537 177.232 27.9321 176.983 27.896C176.311 27.7989 175.419 27.814 174.673 27.9351C174.31 27.994 174.001 28.03 173.986 28.0151C173.971 28.0002 174.011 27.6751 174.074 27.2925C174.186 26.6098 174.179 25.1151 174.062 24.6634C174.031 24.5472 174.601 25.0696 175.744 26.2071C176.694 27.1528 177.464 27.9344 177.454 27.9441ZM164.126 29.3743C165.533 31.2388 165.669 33.7682 164.47 35.786C164.304 36.0657 163.899 36.5739 163.57 36.9154L162.972 37.5364L162.486 37.0588C161.219 35.8112 160.665 34.5369 160.657 32.8547C160.65 31.1766 161.143 29.994 162.394 28.6858L162.952 28.1028L163.366 28.5101C163.594 28.7341 163.936 29.123 164.126 29.3743ZM176.996 30.0359C178.158 30.259 179.147 30.7884 180.099 31.6964L180.675 32.2466L180.254 32.6788C179.668 33.2789 179.086 33.707 178.426 34.0231C177.644 34.3979 177.149 34.517 176.204 34.5583C174.462 34.6345 173.18 34.1316 171.761 32.8159L171.211 32.3062L171.691 31.8186C173.191 30.294 175.064 29.6646 176.996 30.0359ZM170.631 34.6987C170.619 34.7109 170.302 34.6866 169.926 34.6447C169.241 34.5683 168.128 34.6323 167.463 34.7862C167.309 34.8218 167.178 34.8447 167.171 34.8372C167.164 34.8297 167.205 34.5862 167.261 34.2961C167.379 33.6922 167.416 32.351 167.332 31.7298L167.275 31.3079L168.964 32.9921C169.893 33.9185 170.644 34.6864 170.631 34.6987ZM170.518 36.8742C171.56 37.1267 172.425 37.6236 173.331 38.4893L173.899 39.032L173.421 39.5144C172.163 40.7854 170.835 41.3548 169.148 41.3476C167.467 41.3404 166.192 40.7857 164.946 39.5192L164.47 39.0353L165.052 38.4712C165.916 37.6324 166.589 37.2242 167.581 36.9357C168.481 36.6739 169.596 36.6505 170.518 36.8742Z" fill="#595959"/>
</svg>
